<svg xmlns="http://www.w3.org/2000/svg" width="25.514" height="17.047" viewBox="0 0 25.514 17.047">
  <g id="Group_27" data-name="Group 27" transform="translate(1983 -1085.168)">
    <g id="Group_22" data-name="Group 22" transform="translate(-1983 1085.168)">
      <g id="Group_19" data-name="Group 19" transform="translate(0 2.992)">
        <path id="Path_313" data-name="Path 313" d="M-1979.267,1098.476h-2.971a.762.762,0,0,1-.762-.762.762.762,0,0,1,.762-.762h2.971a.762.762,0,0,1,.762.762A.762.762,0,0,1-1979.267,1098.476Z" transform="translate(1983 -1096.953)" fill="#131b17"/>
      </g>
      <g id="Group_20" data-name="Group 20" transform="translate(14.22 2.992)">
        <path id="Path_314" data-name="Path 314" d="M-1916.463,1098.476h-9.771a.762.762,0,0,1-.762-.762.761.761,0,0,1,.762-.762h9.771a.762.762,0,0,1,.762.762A.762.762,0,0,1-1916.463,1098.476Z" transform="translate(1926.995 -1096.953)" fill="#131b17"/>
      </g>
      <g id="Group_21" data-name="Group 21" transform="translate(5.653 0)">
        <path id="Path_315" data-name="Path 315" d="M-1956.983,1092.676a3.758,3.758,0,0,1-3.754-3.754,3.758,3.758,0,0,1,3.754-3.754,3.758,3.758,0,0,1,3.754,3.754A3.758,3.758,0,0,1-1956.983,1092.676Zm0-5.984a2.233,2.233,0,0,0-2.23,2.231,2.233,2.233,0,0,0,2.23,2.23,2.233,2.233,0,0,0,2.231-2.23A2.233,2.233,0,0,0-1956.983,1086.691Z" transform="translate(1960.737 -1085.168)" fill="#131b17"/>
      </g>
    </g>
    <g id="Group_26" data-name="Group 26" transform="translate(-1983 1094.706)">
      <g id="Group_23" data-name="Group 23" transform="translate(22.543 2.993)">
        <path id="Path_316" data-name="Path 316" d="M-1892.006,1136.043h-1.448a.762.762,0,0,1-.762-.762.761.761,0,0,1,.762-.762h1.448a.762.762,0,0,1,.762.762A.762.762,0,0,1-1892.006,1136.043Z" transform="translate(1894.215 -1134.52)" fill="#131b17"/>
      </g>
      <g id="Group_24" data-name="Group 24" transform="translate(0 2.993)">
        <path id="Path_317" data-name="Path 317" d="M-1970.944,1136.043h-11.294a.762.762,0,0,1-.762-.762.761.761,0,0,1,.762-.762h11.294a.761.761,0,0,1,.761.762A.762.762,0,0,1-1970.944,1136.043Z" transform="translate(1983 -1134.52)" fill="#131b17"/>
      </g>
      <g id="Group_25" data-name="Group 25" transform="translate(13.877)">
        <path id="Path_318" data-name="Path 318" d="M-1924.593,1130.242a3.758,3.758,0,0,1-3.754-3.754,3.758,3.758,0,0,1,3.754-3.754,3.758,3.758,0,0,1,3.754,3.754A3.758,3.758,0,0,1-1924.593,1130.242Zm0-5.985a2.233,2.233,0,0,0-2.231,2.231,2.233,2.233,0,0,0,2.231,2.23,2.233,2.233,0,0,0,2.23-2.23A2.233,2.233,0,0,0-1924.593,1124.257Z" transform="translate(1928.347 -1122.734)" fill="#131b17"/>
      </g>
    </g>
  </g>
</svg>
