<?xml version="1.0" encoding="utf-8"?>
<!-- Generator: Adobe Illustrator 21.0.2, SVG Export Plug-In . SVG Version: 6.00 Build 0)  -->
<svg version="1.1" id="Layer_1" xmlns="http://www.w3.org/2000/svg" xmlns:xlink="http://www.w3.org/1999/xlink" x="0px" y="0px"
	 viewBox="0 0 85 85" style="enable-background:new 0 0 85 85;" xml:space="preserve">
<style type="text/css">
	.st0{fill:#23DDD7;stroke:#FFFFFF;stroke-width:4.45;stroke-linecap:round;stroke-linejoin:round;}
	.st1{fill:#23DDD7;stroke:#FFFFFF;stroke-width:4.5289;stroke-linecap:round;stroke-linejoin:round;}
</style>
<circle class="st0" cx="42.2" cy="42.2" r="37.8"/>
<path class="st1" d="M18.6,33.2l19.5-10.7c0,0,3-1,4.9,0c2,1,20.7,11.1,20.7,11.1s1.5,0.7,0,1.7c-1.5,1-21.2,11.4-21.2,11.4
	s-1.2,1-4.9-0.7S17.8,35.3,17.8,35.3S16.6,34.2,18.6,33.2z"/>
<path class="st1" d="M28.5,48.4v4.7c0,0-0.2,2.1,1.2,2.9c1.5,0.9,14.3,6.2,23.2-1.2c0,0,0.2-0.3,0.2-1.8s0-4.4,0-4.4"/>
<polyline class="st1" points="62.7,35.9 62.8,50.5 60.6,56.7 65,57.1 63,50.8 "/>
</svg>
