<?xml version="1.0" encoding="utf-8"?>
<!-- Generator: Adobe Illustrator 21.0.2, SVG Export Plug-In . SVG Version: 6.00 Build 0)  -->
<svg version="1.1" xmlns="http://www.w3.org/2000/svg" xmlns:xlink="http://www.w3.org/1999/xlink" x="0px" y="0px"
	 viewBox="0 0 258.8 321.4" style="enable-background:new 0 0 258.8 321.4;" xml:space="preserve">
<style type="text/css">
	.st0{display:none;}
	.st1{fill:none;stroke:#FFFFFF;stroke-width:25.8478;stroke-miterlimit:10;}
	.st2{display:inline;fill:#FFFFFF;}
</style>
<g id="Layer_1" class="st0">
	
		<image style="display:inline;overflow:visible;" width="708" height="762" xlink:href="../../../../../../../../../Users/alf/Desktop/Screen Shot 2019-01-06 at 15.44.42.png"  transform="matrix(0.5 0 0 0.5 506 193)">
	</image>
</g>
<g id="Layer_2">
	<path class="st1" d="M87.2,250.9l32.9,55.1c0,0,5.9,2.6,11.1,0c5.2-2.6,30.7-55.1,30.7-55.1h59.5c0,0,23.7-1.8,24-22.9
		c0.4-21.1,0-191.9,0-191.9s-4.4-20.7-22.9-20.7s-187.8,0-187.8,0S11.7,17.5,11,33.4c-0.7,15.9,0,198.2,0,198.2s1.8,17.7,16.3,18.5
		S87.2,250.9,87.2,250.9z"/>
</g>
<g id="Layer_3" class="st0">
	<path class="st2" d="M127,43.2c-17.1,0.9-60.7,13.4-58.6,62.7s61.4,112,61.4,112s60.4-73.7,59.6-114.9
		C188.5,61.9,149.4,41.9,127,43.2z M129,126.2c-11.9,0-21.6-9.7-21.6-21.6S117,83,129,83s21.6,9.7,21.6,21.6S140.9,126.2,129,126.2z
		"/>
</g>
</svg>
