<?xml version="1.0" encoding="utf-8"?>
<!-- Generator: Adobe Illustrator 21.0.2, SVG Export Plug-In . SVG Version: 6.00 Build 0)  -->
<svg version="1.1" xmlns="http://www.w3.org/2000/svg" xmlns:xlink="http://www.w3.org/1999/xlink" x="0px" y="0px"
	 viewBox="0 0 258.8 321.4" style="enable-background:new 0 0 258.8 321.4;" xml:space="preserve">
<style type="text/css">
	.st0{display:none;}
	.st1{fill:#845A5A;}
	.st2{fill:#FFFFFF;}
</style>
<g id="Layer_1" class="st0">
	
		<image style="display:inline;overflow:visible;" width="708" height="762" xlink:href="../../../../../../../../../Users/alf/Desktop/Screen Shot 2019-01-06 at 15.44.42.png"  transform="matrix(0.5 0 0 0.5 506 193)">
	</image>
</g>
<g id="Layer_2">
	<path class="st1" d="M84.3,259.4l36.2,60.7c0,0,6.5,2.9,12.2,0s33.8-60.7,33.8-60.7h65.6c0,0,26.1-2,26.5-25.3
		c0.4-23.2,0-211.4,0-211.4S253.7,0,233.3,0S26.4,0,26.4,0S1.2,2.4,0.4,20s0,218.3,0,218.3s2,19.5,17.9,20.4S84.3,259.4,84.3,259.4z
		"/>
</g>
<g id="Layer_3">
	<path class="st2" d="M127,43.2c-17.1,0.9-60.7,13.4-58.6,62.7s61.4,112,61.4,112s60.4-73.7,59.6-114.9
		C188.5,61.9,149.4,41.9,127,43.2z M129,126.2c-11.9,0-21.6-9.7-21.6-21.6S117,83,129,83s21.6,9.7,21.6,21.6S140.9,126.2,129,126.2z
		"/>
</g>
</svg>
